<svg
  aria-hidden="true"
  style="position:absolute;width:0;height:0;overflow:hidden"
  xmlns="http://www.w3.org/2000/svg"
>
  <defs>
    <symbol id="icon-close" viewBox="0 0 32 32">
      <path
        d="M32 3.223l-3.223-3.223-12.777 12.777-12.777-12.777-3.223 3.223 12.777 12.777-12.777 12.777 3.223 3.223 12.777-12.777 12.777 12.777 3.223-3.223-12.777-12.777 12.777-12.777z"
      />
    </symbol>
  

<!-- footer -->

    <symbol id="icon-logo-or" viewBox="0 0 43 32">
<path
        fill="#f7941e"
        style="fill: var(--color1, #f7941e)"
        d="M11.843 11.234c0.001 0.019 0.002 0.041 0.002 0.063 0 0.163-0.040 0.317-0.111 0.452l0.003-0.005c-0.070 0.164-0.135 0.31-0.193 0.44l-0.563 0.597-0.333 1.002c-0.115 0.085-0.253 0.178-0.394 0.266l-0.028 0.016c-0.29 0.161-0.535 0.366-0.734 0.611l-0.004 0.004c-0.094 0.129-0.2 0.24-0.317 0.334-0.122 0.096-0.261 0.178-0.41 0.242l-0.012 0.005c-0.162 0.062-0.301 0.133-0.432 0.216l0.010-0.006c-0.234 0.141-0.457 0.288-0.668 0.44-0.199 0.152-0.41 0.299-0.633 0.44-0.054 0.020-0.101 0.050-0.14 0.087l0-0c-0.035 0.030-0.076 0.054-0.12 0.069l-0.003 0.001c-0.035 0.024-0.188 0.071-0.457 0.141-0.27 0.070-0.569 0.153-0.897 0.247-0.316 0.082-0.615 0.158-0.896 0.228-0.282 0.070-0.44 0.105-0.475 0.105-0.21 0.024-0.428 0.036-0.65 0.036s-0.446 0.006-0.668 0.017l-0.264 0.159c-0.121-0.089-0.259-0.176-0.403-0.254l-0.019-0.010c-0.147-0.078-0.274-0.166-0.389-0.266l0.002 0.002c-0.124-0.112-0.239-0.227-0.347-0.347l-0.004-0.004c-0.117-0.141-0.223-0.27-0.317-0.387-0.104-0.306-0.163-0.463-0.225-0.619l0.050 0.144c-0.047-0.125-0.095-0.283-0.134-0.445l-0.006-0.029-0.089-0.668c-0.069-0.729-0.093-0.953-0.119-1.176l0.049 0.526c-0.012-0.212-0.030-0.428-0.053-0.651 0.2-0.55 0.375-1.102 0.527-1.652 0.194-0.662 0.397-1.211 0.633-1.742l-0.035 0.089c0.059-0.129 0.111-0.258 0.158-0.387 0.059-0.14 0.118-0.275 0.176-0.404 0.070-0.14 0.147-0.27 0.229-0.387 0.082-0.128 0.152-0.257 0.21-0.386 0.051-0.116 0.099-0.257 0.136-0.401l0.005-0.021c0.035-0.152 0.082-0.293 0.14-0.422 0.036-0.070 0.095-0.17 0.177-0.299 0.082-0.14 0.17-0.281 0.263-0.422 0.094-0.152 0.182-0.299 0.264-0.44 0.094-0.14 0.17-0.251 0.228-0.333 0.094-0.117 0.188-0.229 0.282-0.334 0.093-0.106 0.17-0.223 0.228-0.352 0.117-0.199 0.229-0.45 0.334-0.756 0.108-0.314 0.227-0.58 0.367-0.834l-0.014 0.027c0.14-0.258 0.304-0.498 0.492-0.72 0.2-0.235 0.38-0.475 0.545-0.722 0.176-0.246 0.346-0.515 0.51-0.808l0.773-0.563 0.352 0.352 0.843-0.14 0.528 0.79c-0.044 0.338-0.075 0.542-0.108 0.745l0.020-0.147c-0.024 0.223-0.047 0.451-0.070 0.685l-0.036 0.668c0 0.211 0.012 0.399 0.036 0.563-0.059 0.21-0.147 0.434-0.264 0.668-0.104 0.221-0.228 0.412-0.373 0.584l0.003-0.004-0.070 0.95-0.703 0.632-0.088 0.897-0.597 0.703-0.106 0.51c-0.039 0.184-0.088 0.343-0.147 0.496l0.007-0.022c-0.059 0.14-0.13 0.287-0.211 0.44-0.082 0.14-0.164 0.287-0.246 0.439-0.235 0.2-0.475 0.422-0.721 0.668-0.23 0.229-0.449 0.47-0.655 0.721l-0.013 0.017c-0.102 0.124-0.2 0.261-0.289 0.406l-0.010 0.016c-0.082 0.14-0.17 0.275-0.264 0.404-0.304 0.387-0.632 0.75-0.984 1.090s-0.697 0.692-1.037 1.055l0.387 0.685c0.246 0.083 0.498 0.159 0.756 0.229s0.515 0.135 0.773 0.193c0.117-0.023 0.252-0.047 0.404-0.070 0.153-0.035 0.31-0.070 0.475-0.105 0.164-0.047 0.322-0.094 0.475-0.141 0.164-0.047 0.298-0.094 0.404-0.14 0.234-0.095 0.504-0.23 0.808-0.405 0.305-0.188 0.563-0.352 0.774-0.492 0.375-0.235 0.756-0.475 1.142-0.72 0.387-0.247 0.756-0.505 1.108-0.774 0.234-0.176 0.48-0.399 0.738-0.668l0.72-0.756c0.235-0.246 0.44-0.445 0.616-0.598 0.188-0.152 0.317-0.21 0.387-0.176zM7.062 2.92c-0.247 0.41-0.51 0.809-0.791 1.195-0.27 0.375-0.522 0.768-0.756 1.178-0.082 0.14-0.153 0.287-0.211 0.44-0.059 0.14-0.135 0.28-0.229 0.421-0.082 0.13-0.17 0.258-0.263 0.387-0.094 0.129-0.176 0.27-0.247 0.422-0.14 0.27-0.27 0.557-0.386 0.861-0.106 0.293-0.223 0.58-0.352 0.862-0.14 0.28-0.305 0.544-0.492 0.79-0.188 0.247-0.357 0.51-0.51 0.792l-0.281 0.562c-0.021 0.054-0.044 0.1-0.072 0.143l0.002-0.003c-0.030 0.035-0.054 0.076-0.069 0.121l-0.001 0.003c-0.048 0.129-0.071 0.27-0.071 0.422 0 0.002 0 0.004 0 0.006 0 0.301-0.078 0.583-0.214 0.828l0.004-0.009c-0.071 0.129-0.136 0.258-0.194 0.387-0.053 0.114-0.101 0.248-0.137 0.388l-0.004 0.016c-0.045 0.166-0.088 0.295-0.135 0.421l0.011-0.034c0.094-0.094 0.193-0.176 0.299-0.247 0.117-0.082 0.228-0.17 0.334-0.263 0.105-0.106 0.205-0.217 0.299-0.334s0.199-0.223 0.316-0.317c0.106-0.093 0.217-0.175 0.334-0.246 0.129-0.082 0.252-0.164 0.37-0.246 0.168-0.227 0.331-0.486 0.474-0.756l0.017-0.034c0.070-0.13 0.13-0.276 0.176-0.44 0.059-0.164 0.13-0.31 0.211-0.44 0.070-0.129 0.158-0.252 0.264-0.369 0.117-0.117 0.217-0.24 0.299-0.369 0.093-0.129 0.17-0.264 0.228-0.404 0.070-0.14 0.147-0.276 0.229-0.405 0.164-0.257 0.345-0.504 0.545-0.738l0.087-1.107 0.633-0.739 0.088-0.668 0.44-0.615 0.052-0.984-0.298-0.88zM21.528 11.48c0.017 0.051 0.027 0.11 0.027 0.172 0 0.105-0.030 0.204-0.081 0.288l0.001-0.002c-0.091 0.126-0.202 0.231-0.329 0.314l-0.005 0.003c-0.127 0.092-0.271 0.18-0.422 0.256l-0.018 0.008c-0.152 0.070-0.281 0.152-0.387 0.246-0.527 0.117-1.007 0.205-1.441 0.263-0.422 0.047-0.89 0.112-1.406 0.194-0.066 0.011-0.142 0.018-0.22 0.018s-0.154-0.006-0.228-0.019l0.008 0.001c-0.129-0.036-0.263-0.047-0.404-0.036h-0.229c-0.032-0.006-0.068-0.009-0.105-0.009s-0.073 0.003-0.109 0.009l0.004-0.001c-0.27 0.024-0.446 0.118-0.528 0.282-0.083 0.156-0.155 0.337-0.206 0.526l-0.004 0.019c-0.048 0.199-0.112 0.392-0.194 0.58-0.070 0.176-0.229 0.299-0.475 0.369-0.009 0.019-0.014 0.041-0.014 0.064 0 0.036 0.012 0.068 0.032 0.094l-0-0c0.038 0.037 0.073 0.077 0.103 0.12l0.002 0.003c-0.199 0.059-0.334 0.164-0.404 0.317-0.042 0.102-0.096 0.253-0.145 0.407l-0.013 0.050c-0.044 0.149-0.117 0.278-0.212 0.387l0.001-0.001c-0.082 0.106-0.246 0.141-0.492 0.106-0.359 0.38-0.784 0.693-1.258 0.92l-0.026 0.011c-0.443 0.229-0.959 0.396-1.504 0.472l-0.025 0.003c-0.107-0.055-0.199-0.113-0.285-0.179l0.004 0.003c-0.078-0.067-0.164-0.131-0.255-0.188l-0.009-0.005c-0.080-0.057-0.173-0.105-0.273-0.138l-0.007-0.002c-0.050-0.011-0.108-0.018-0.168-0.018s-0.117 0.006-0.173 0.019l0.005-0.001c-0.010-0.249-0.060-0.483-0.145-0.701l0.005 0.015c-0.103-0.228-0.22-0.425-0.358-0.606l0.006 0.008c-0.024-0.21 0.006-0.404 0.088-0.58 0.070-0.188 0.146-0.37 0.228-0.545 0.068-0.139 0.139-0.313 0.201-0.492l0.010-0.035c0.017-0.076 0.027-0.164 0.027-0.253 0-0.136-0.023-0.266-0.065-0.388l0.002 0.008c0.102-0.054 0.182-0.139 0.228-0.243l0.001-0.003c0.042-0.082 0.073-0.176 0.086-0.277l0.001-0.004c0.024-0.106 0.053-0.2 0.088-0.282 0.035-0.093 0.118-0.17 0.246-0.228-0.093-0.281-0.082-0.486 0.036-0.615 0.128-0.141 0.28-0.264 0.457-0.37 0.175-0.105 0.34-0.222 0.492-0.351s0.21-0.322 0.176-0.58c0.070-0.070 0.151-0.129 0.241-0.174l0.005-0.002c0.093-0.047 0.181-0.088 0.263-0.123 0.094-0.047 0.182-0.094 0.264-0.14 0.089-0.053 0.165-0.117 0.228-0.193l0.001-0.001c-0.082-0.059-0.124-0.117-0.124-0.176 0.012-0.058 0.030-0.117 0.053-0.176l0.070-0.21c0.017-0.031 0.026-0.067 0.026-0.105s-0.010-0.075-0.027-0.107l0.001 0.001c0.317 0.046 0.592 0.005 0.827-0.123 0.285-0.162 0.509-0.302 0.727-0.449l-0.042 0.027c0.223-0.141 0.446-0.24 0.668-0.3 0.223-0.058 0.48 0.013 0.774 0.212l0.105 0.369c0.059 0.152 0.111 0.31 0.158 0.475 0.059 0.164 0.112 0.322 0.159 0.474 0.046 0.152 0.076 0.264 0.087 0.334v1.406c0.34 0.2 0.68 0.323 1.020 0.37 0.34 0.035 0.68-0.047 1.020-0.247 0.128 0.118 0.252 0.153 0.369 0.106 0.117-0.059 0.228-0.123 0.334-0.194 0.1-0.064 0.221-0.103 0.35-0.105h0.001c0.117-0.012 0.235 0.082 0.352 0.281 0.136-0.135 0.309-0.234 0.503-0.28l0.007-0.001c0.175-0.047 0.357-0.070 0.545-0.070 0.187-0.012 0.369-0.030 0.544-0.053 0.188-0.024 0.37-0.1 0.545-0.229zM14.778 11.78c0-0.176 0.030-0.364 0.088-0.563s0.106-0.393 0.14-0.58c0.036-0.2 0.030-0.387-0.017-0.563-0.035-0.176-0.146-0.334-0.334-0.474-0.13 0.072-0.237 0.173-0.314 0.294l-0.002 0.004c-0.082 0.118-0.164 0.24-0.246 0.37-0.083 0.117-0.182 0.216-0.296 0.295l-0.004 0.003c-0.104 0.082-0.245 0.106-0.42 0.070-0.060 0.141-0.060 0.259 0 0.352 0.058 0.082 0.128 0.164 0.21 0.246 0.082 0.070 0.158 0.147 0.229 0.229 0.082 0.082 0.11 0.187 0.087 0.316 0.047 0.036 0.112 0.070 0.194 0.106 0.082 0.023 0.164 0.040 0.246 0.053 0.001 0 0.002 0 0.004 0 0.092 0 0.182-0.013 0.266-0.038l-0.007 0.002c0.074-0.017 0.136-0.062 0.175-0.122l0.001-0.001zM14.655 13.185c-0.234 0-0.44-0.052-0.615-0.158-0.204-0.146-0.37-0.273-0.533-0.404l0.023 0.018c-0.164-0.141-0.34-0.27-0.527-0.387-0.182-0.129-0.405-0.213-0.646-0.229l-0.004-0c-0.106 0.141-0.229 0.276-0.37 0.405-0.14 0.117-0.263 0.246-0.369 0.386-0.105 0.141-0.181 0.293-0.228 0.457-0.035 0.165-0.006 0.352 0.088 0.563-0.27 0.129-0.451 0.316-0.545 0.562-0.091 0.225-0.159 0.487-0.193 0.759l-0.001 0.015-0.070 0.844c-0.023 0.28-0.1 0.533-0.228 0.756l0.386-0.264c0.046 0.023 0.083 0.059 0.105 0.104l0.001 0.001c0.035 0.047 0.040 0.1 0.017 0.159 0.088-0.089 0.193-0.16 0.311-0.209l0.006-0.002c0.117-0.059 0.234-0.1 0.351-0.123 0.084-0.025 0.209-0.056 0.335-0.082l0.035-0.006c0.128-0.024 0.251-0.059 0.368-0.106 0.293 0.164 0.504 0.2 0.633 0.106s0.235-0.235 0.317-0.422c0.082-0.188 0.17-0.381 0.263-0.58 0.079-0.196 0.248-0.342 0.454-0.386l0.004-0.001-0.124-0.123c0.2-0.246 0.375-0.498 0.528-0.756 0.164-0.27 0.24-0.568 0.228-0.897zM31.917 11.973c-0.123 0.156-0.225 0.336-0.295 0.532l-0.004 0.013c-0.070 0.199-0.158 0.386-0.263 0.562-0.093 0.175-0.218 0.322-0.367 0.438l-0.003 0.002c-0.14 0.117-0.34 0.17-0.597 0.158-0.187 0.070-0.336 0.207-0.42 0.381l-0.002 0.005c-0.020 0.027-0.102 0.206-0.183 0.386l-0.063 0.159c-0.079 0.172-0.186 0.318-0.316 0.439l-0.001 0.001c-0.129 0.105-0.322 0.117-0.58 0.035-0.328 0.14-0.627 0.328-0.896 0.563-0.258 0.222-0.504 0.457-0.738 0.703-0.096 0.098-0.189 0.201-0.276 0.308l-0.006 0.008c-0.087 0.101-0.185 0.188-0.294 0.261l-0.005 0.003c-0.039 0.025-0.088 0.040-0.139 0.040-0.039 0-0.076-0.008-0.109-0.023l0.002 0.001c-0.104-0.044-0.179-0.079-0.253-0.116l0.025 0.011c-0.059-0.042-0.132-0.068-0.211-0.070h-0c-0.059 0-0.111 0.052-0.158 0.158 0.082 0.164 0.1 0.275 0.052 0.334-0.056 0.075-0.134 0.131-0.225 0.157l-0.003 0.001c-0.089 0.031-0.201 0.062-0.316 0.085l-0.018 0.003c-0.108 0.018-0.203 0.062-0.282 0.124l0.001-0.001c-0.137 0.125-0.241 0.286-0.298 0.466l-0.002 0.008c-0.058 0.188-0.11 0.375-0.157 0.563-0.050 0.2-0.123 0.375-0.216 0.537l0.005-0.010c-0.089 0.182-0.236 0.323-0.417 0.403l-0.005 0.002c0.117 0.082 0.164 0.164 0.14 0.246-0.015 0.092-0.046 0.175-0.090 0.249l0.002-0.003c-0.039 0.074-0.075 0.161-0.102 0.252l-0.003 0.011c-0.012 0.082 0.035 0.165 0.14 0.247-0.167 0.21-0.324 0.446-0.461 0.694l-0.013 0.026-0.387 0.774c-0.129 0.27-0.27 0.527-0.421 0.773-0.141 0.258-0.323 0.486-0.545 0.686l0.052 0.422c-0.176-0.047-0.287-0.041-0.334 0.017-0.033 0.064-0.053 0.139-0.053 0.219 0 0.010 0 0.019 0.001 0.029l-0-0.001v0.317c0.011 0.117-0.024 0.205-0.106 0.263-0.032 0.044-0.073 0.080-0.121 0.105l-0.002 0.001c-0.039 0.027-0.074 0.056-0.105 0.088l-0 0c-0.359 0.265-0.629 0.631-0.77 1.057l-0.004 0.015c-0.021 0.058-0.039 0.129-0.052 0.202l-0.001 0.008c-0.011 0.071-0.029 0.147-0.052 0.23-0.075 0.195-0.17 0.363-0.286 0.515l0.004-0.005c-0.129 0.175-0.27 0.357-0.421 0.544-0.153 0.188-0.3 0.38-0.44 0.58-0.125 0.182-0.237 0.391-0.326 0.611l-0.008 0.022c-0.187-0.024-0.334-0.006-0.44 0.053-0.113 0.067-0.207 0.155-0.278 0.26l-0.002 0.003c-0.070 0.117-0.13 0.24-0.176 0.37-0.047 0.128-0.106 0.24-0.176 0.333-0.077 0.101-0.178 0.179-0.294 0.227l-0.005 0.002c-0.129 0.059-0.293 0.059-0.492 0l-0.791 0.72c-0.072-0.048-0.16-0.077-0.255-0.077-0.054 0-0.105 0.009-0.153 0.026l0.003-0.001c-0.154 0.052-0.288 0.118-0.411 0.197l0.007-0.004c-0.14 0.082-0.275 0.147-0.404 0.194-0.048 0.016-0.104 0.025-0.161 0.025-0.103 0-0.199-0.029-0.281-0.079l0.002 0.001c-0.082 0.094-0.152 0.14-0.21 0.14-0.060 0.012-0.13-0.035-0.211-0.14l-0.264 0.281c-0.149-0.122-0.316-0.233-0.494-0.326l-0.016-0.008c-0.222-0.099-0.412-0.21-0.589-0.34l0.009 0.006c-0.17-0.112-0.31-0.252-0.419-0.417l-0.003-0.005c-0.105-0.152-0.123-0.351-0.053-0.597-0.031-0.088-0.066-0.164-0.108-0.235l0.003 0.006c-0.055-0.076-0.102-0.163-0.137-0.256l-0.003-0.008c-0.033-0.077-0.058-0.165-0.070-0.258l-0-0.005c-0.002-0.012-0.003-0.026-0.003-0.040 0-0.073 0.028-0.14 0.073-0.19l-0 0c-0.075-0.133-0.119-0.291-0.119-0.46 0-0.055 0.005-0.108 0.014-0.161l-0.001 0.006c0.023-0.2 0.064-0.398 0.123-0.598s0.105-0.398 0.14-0.597c0.036-0.2 0-0.399-0.105-0.598 0.138-0.104 0.247-0.24 0.315-0.398l0.002-0.006c0.058-0.164 0.117-0.334 0.175-0.51 0.047-0.176 0.1-0.346 0.159-0.51 0.059-0.165 0.162-0.303 0.296-0.402l0.002-0.002-0.017-0.281c0.542-0.576 1.116-1.105 1.725-1.592l0.033-0.025c0.609-0.48 1.3-0.838 2.074-1.073 0.152-0.27 0.351-0.468 0.597-0.597 0.246-0.118 0.498-0.229 0.756-0.334 0.246-0.094 0.475-0.217 0.686-0.37 0.21-0.14 0.369-0.369 0.475-0.685 0.058 0.129 0.117 0.182 0.175 0.158 0.068-0.016 0.127-0.046 0.177-0.088l-0.001 0c0.070-0.035 0.135-0.064 0.193-0.088 0.059-0.011 0.118 0.041 0.176 0.159 0.117-0.352 0.305-0.633 0.563-0.844 0.27-0.211 0.562-0.399 0.879-0.563l0.984-0.457c0.328-0.14 0.615-0.316 0.861-0.527 0.258-0.211 0.451-0.469 0.58-0.773 0.13-0.317 0.159-0.721 0.088-1.213 0.097-0.061 0.171-0.153 0.21-0.26l0.001-0.004c0.032-0.101 0.057-0.221 0.069-0.344l0.001-0.008c0.024-0.117 0.053-0.222 0.088-0.316s0.112-0.158 0.229-0.193c-0.082-0.13-0.182-0.188-0.299-0.176-0.117 0.011-0.24 0.047-0.37 0.105-0.16 0.079-0.269 0.138-0.376 0.199l0.043-0.023c-0.105 0.059-0.193 0.070-0.264 0.035-0.023 0.148-0.108 0.274-0.226 0.351l-0.002 0.001c-0.106 0.070-0.223 0.135-0.352 0.193-0.129 0.047-0.264 0.1-0.404 0.158s-0.255 0.156-0.332 0.279l-0.002 0.003c-0.106-0.047-0.205-0.024-0.299 0.070-0.082 0.082-0.17 0.176-0.264 0.281-0.076 0.089-0.169 0.16-0.275 0.209l-0.005 0.002c-0.106 0.047-0.23 0-0.37-0.14-0.055 0.171-0.184 0.305-0.347 0.368l-0.004 0.001c-0.146 0.056-0.314 0.088-0.491 0.088-0.007 0-0.014-0-0.020-0h0.001c-0.188 0-0.381-0.012-0.58-0.036-0.061-0.009-0.132-0.014-0.204-0.014-0.108 0-0.214 0.012-0.315 0.034l0.010-0.002-0.299-0.299c-0.022 0.057-0.058 0.104-0.104 0.139l-0.001 0.001c-0.029 0.020-0.066 0.032-0.105 0.032-0.026 0-0.050-0.005-0.072-0.014l0.001 0c-0.077-0.157-0.166-0.366-0.246-0.579l-0.018-0.054c-0.084-0.2-0.146-0.431-0.175-0.673l-0.001-0.012c-0.011-0.068-0.018-0.146-0.018-0.225 0-0.158 0.026-0.311 0.074-0.453l-0.003 0.010c0.070-0.223 0.211-0.416 0.422-0.58 0.31-0.576 0.744-1.050 1.269-1.397l0.014-0.009c0.041 0.035 0.094 0.056 0.152 0.056 0.015 0 0.029-0.001 0.043-0.004l-0.001 0c0.083-0.028 0.152-0.058 0.219-0.092l-0.009 0.004c0.082-0.046 0.159-0.093 0.229-0.14 0.053-0.049 0.118-0.086 0.19-0.105l0.003-0.001c0.036-0.129 0.1-0.252 0.194-0.369 0.105-0.117 0.216-0.222 0.334-0.316 0.129-0.094 0.258-0.176 0.386-0.246 0.141-0.082 0.27-0.153 0.387-0.211 0.223-0.106 0.428-0.234 0.615-0.387 0.2-0.164 0.399-0.316 0.598-0.457 0.2-0.152 0.404-0.281 0.615-0.387 0.202-0.1 0.44-0.158 0.692-0.158 0.010 0 0.020 0 0.030 0l-0.002-0 0.317 0.281c-0.199 0.118-0.375 0.264-0.527 0.44-0.14 0.164-0.287 0.334-0.44 0.51-0.152 0.163-0.312 0.313-0.483 0.45l-0.009 0.007c-0.181 0.141-0.401 0.24-0.642 0.279l-0.008 0.001c-0.211 0.411-0.498 0.763-0.861 1.056-0.352 0.28-0.715 0.545-1.090 0.79 0 0.008 0.001 0.018 0.001 0.027 0 0.153-0.060 0.292-0.159 0.395l0-0c-0.108 0.107-0.229 0.2-0.361 0.277l-0.009 0.005c-0.14 0.082-0.28 0.158-0.421 0.228-0.139 0.057-0.257 0.14-0.351 0.245l-0.001 0.001c-0.077 0.093-0.124 0.213-0.124 0.344 0 0.009 0 0.018 0.001 0.027l-0-0.001c0 0.14 0.076 0.328 0.229 0.562 0.14-0.070 0.31-0.117 0.51-0.14 0.198-0.024 0.392-0.053 0.58-0.089 0.187-0.046 0.35-0.11 0.492-0.193 0.152-0.096 0.265-0.243 0.315-0.417l0.001-0.005c0.164-0.14 0.34-0.228 0.527-0.263s0.381-0.042 0.58-0.018c0.387-0.422 0.774-0.809 1.16-1.16 0.399-0.364 0.774-0.733 1.126-1.108 0.351-0.375 0.673-0.773 0.966-1.195 0.305-0.434 0.569-0.932 0.791-1.494 0.069-0.024 0.148-0.038 0.23-0.038 0.151 0 0.291 0.047 0.405 0.128l-0.002-0.002c0.188 0.129 0.322 0.293 0.404 0.492-0.023 0.14-0.064 0.275-0.123 0.404l-0.14 0.352c-0.033 0.097-0.064 0.215-0.086 0.336l-0.002 0.016c-0.012 0.128 0.012 0.275 0.070 0.439-0.094-0.024-0.17 0.006-0.228 0.088-0.046 0.080-0.098 0.149-0.159 0.21l0-0c0.015 0.055 0.023 0.118 0.023 0.183 0 0.086-0.015 0.168-0.042 0.245l0.002-0.005c-0.056 0.137-0.115 0.252-0.182 0.362l0.006-0.011c-0.070 0.106-0.135 0.223-0.193 0.352-0.030 0.083-0.047 0.179-0.047 0.278 0 0.051 0.005 0.101 0.013 0.149l-0.001-0.005c-0.153 0.278-0.28 0.6-0.364 0.938l-0.006 0.028c-0.070 0.329-0.117 0.662-0.14 1.002l0.316 0.282c0.152-0.223 0.34-0.381 0.563-0.475 0.234-0.094 0.468-0.17 0.703-0.229 0.234-0.070 0.463-0.146 0.685-0.228 0.223-0.094 0.416-0.252 0.58-0.475 0.070-0.34 0.217-0.58 0.44-0.72 0.223-0.153 0.457-0.282 0.703-0.387s0.48-0.223 0.703-0.352c0.234-0.14 0.399-0.363 0.492-0.668h0.44c-0.024 0.059-0.012 0.112 0.035 0.159l0.123 0.123zM22.197 19.76c-0.118 0.070-0.247 0.134-0.387 0.193s-0.282 0.123-0.422 0.194c-0.14 0.070-0.27 0.152-0.387 0.246-0.115 0.092-0.205 0.21-0.262 0.345l-0.002 0.006c-0.057-0.036-0.126-0.057-0.2-0.057-0.062 0-0.12 0.015-0.171 0.041l0.002-0.001c-0.105 0.070-0.21 0.146-0.316 0.228-0.097 0.087-0.207 0.164-0.325 0.225l-0.009 0.004c-0.106 0.058-0.223 0.052-0.352-0.018-0.222 0.14-0.433 0.293-0.633 0.457-0.21 0.164-0.422 0.322-0.632 0.475-0.189 0.149-0.401 0.294-0.623 0.425l-0.027 0.015c-0.235 0.14-0.481 0.245-0.74 0.316-0.125 0.206-0.297 0.373-0.502 0.488l-0.007 0.004c-0.21 0.129-0.422 0.252-0.633 0.369-0.228 0.12-0.424 0.261-0.599 0.424l0.002-0.002c-0.176 0.164-0.287 0.392-0.334 0.685-0.364 0.235-0.61 0.534-0.739 0.897-0.14 0.375-0.216 0.767-0.228 1.177-0.012 0.422 0.006 0.844 0.053 1.266 0.046 0.434 0.070 0.826 0.070 1.178 0.152 0.176 0.305 0.299 0.457 0.369s0.31 0.105 0.475 0.105c0.164 0 0.334-0.023 0.51-0.070 0.163-0.035 0.345-0.070 0.544-0.105 0.047-0.176 0.135-0.293 0.264-0.352 0.117-0.047 0.246-0.082 0.387-0.105 0.129-0.024 0.252-0.059 0.369-0.106 0.105-0.035 0.164-0.129 0.176-0.281l0.158 0.14c0.006-0.178 0.065-0.341 0.16-0.477l-0.002 0.003c0.094-0.117 0.205-0.229 0.334-0.334s0.27-0.205 0.422-0.299c0.14-0.094 0.264-0.2 0.369-0.316-0.006-0.036-0.009-0.078-0.009-0.12 0-0.165 0.049-0.318 0.134-0.446l-0.002 0.003c0.105-0.152 0.223-0.293 0.352-0.422 0.128-0.129 0.246-0.27 0.351-0.422 0.094-0.152 0.13-0.345 0.106-0.58 0.11-0.041 0.198-0.122 0.245-0.225l0.001-0.003c0.047-0.106 0.094-0.205 0.14-0.299 0.041-0.086 0.1-0.157 0.174-0.209l0.002-0.001c0.082-0.048 0.205-0.036 0.37 0.034-0.165-0.129-0.235-0.228-0.212-0.299 0.043-0.079 0.103-0.144 0.174-0.192l0.002-0.001c0.082-0.047 0.158-0.105 0.229-0.176s0.070-0.175 0-0.316c0.28-0.117 0.462-0.287 0.545-0.51 0.082-0.223 0.14-0.463 0.175-0.72 0.047-0.247 0.112-0.493 0.194-0.739 0.082-0.234 0.263-0.422 0.545-0.562-0.005-0.037-0.009-0.080-0.009-0.124 0-0.161 0.042-0.312 0.116-0.443l-0.002 0.005c0.106-0.152 0.205-0.299 0.299-0.44 0.105-0.14 0.176-0.286 0.21-0.439 0.048-0.152 0.007-0.334-0.122-0.545l-0.229 0.44zM42.851 11.48c0.017 0.051 0.027 0.11 0.027 0.171 0 0.106-0.030 0.205-0.081 0.289l0.001-0.002c-0.091 0.126-0.202 0.231-0.329 0.314l-0.005 0.003c-0.127 0.092-0.271 0.18-0.422 0.256l-0.018 0.008c-0.152 0.070-0.28 0.152-0.386 0.246-0.528 0.117-1.008 0.205-1.442 0.263-0.422 0.047-0.89 0.112-1.406 0.194-0.066 0.011-0.142 0.018-0.22 0.018s-0.154-0.006-0.228-0.019l0.008 0.001c-0.128-0.036-0.263-0.047-0.404-0.036h-0.228c-0.032-0.006-0.068-0.009-0.105-0.009s-0.074 0.003-0.109 0.009l0.004-0.001c-0.27 0.024-0.445 0.118-0.527 0.282-0.083 0.156-0.155 0.337-0.207 0.527l-0.004 0.018c-0.047 0.199-0.112 0.392-0.194 0.58-0.070 0.176-0.228 0.299-0.474 0.369-0.009 0.019-0.014 0.041-0.014 0.065 0 0.035 0.012 0.068 0.032 0.093l-0-0c0.039 0.037 0.073 0.077 0.104 0.12l0.002 0.003c-0.2 0.059-0.334 0.164-0.405 0.317-0.042 0.101-0.096 0.253-0.144 0.407l-0.014 0.050c-0.044 0.149-0.116 0.278-0.211 0.387l0.001-0.001c-0.083 0.106-0.247 0.141-0.493 0.106-0.359 0.38-0.784 0.693-1.257 0.92l-0.026 0.011c-0.444 0.229-0.96 0.396-1.505 0.472l-0.025 0.003c-0.107-0.055-0.199-0.113-0.284-0.179l0.004 0.003c-0.078-0.067-0.164-0.131-0.255-0.188l-0.009-0.005c-0.081-0.057-0.174-0.105-0.275-0.138l-0.007-0.002c-0.050-0.011-0.108-0.018-0.167-0.018s-0.117 0.006-0.172 0.019l0.005-0.001c-0.010-0.249-0.060-0.483-0.145-0.701l0.005 0.015c-0.103-0.228-0.22-0.425-0.358-0.606l0.006 0.008c-0.023-0.21 0.006-0.404 0.088-0.58 0.070-0.188 0.146-0.37 0.229-0.545 0.067-0.139 0.139-0.313 0.2-0.492l0.010-0.035c0.017-0.076 0.027-0.164 0.027-0.253 0-0.136-0.023-0.266-0.065-0.388l0.003 0.008c0.102-0.054 0.182-0.139 0.228-0.243l0.001-0.003c0.043-0.081 0.074-0.176 0.087-0.276l0.001-0.005c0.023-0.106 0.053-0.2 0.088-0.282 0.035-0.093 0.117-0.17 0.246-0.228-0.094-0.281-0.082-0.486 0.035-0.615 0.129-0.141 0.281-0.264 0.457-0.37s0.34-0.222 0.492-0.351c0.153-0.129 0.211-0.322 0.176-0.58 0.070-0.070 0.151-0.129 0.241-0.174l0.005-0.002c0.094-0.047 0.182-0.088 0.264-0.123 0.093-0.047 0.181-0.094 0.263-0.14 0.089-0.053 0.165-0.117 0.228-0.193l0.001-0.001c-0.082-0.059-0.123-0.117-0.123-0.176 0.012-0.058 0.030-0.117 0.053-0.176l0.070-0.21c0.017-0.031 0.026-0.067 0.026-0.105s-0.010-0.075-0.027-0.107l0.001 0.001c0.316 0.046 0.592 0.005 0.826-0.123 0.246-0.141 0.475-0.282 0.686-0.422 0.222-0.141 0.445-0.24 0.667-0.3 0.223-0.058 0.481 0.013 0.774 0.212l0.105 0.369c0.059 0.152 0.112 0.31 0.159 0.475 0.058 0.164 0.111 0.322 0.158 0.474s0.076 0.264 0.088 0.334v1.406c0.34 0.2 0.68 0.323 1.020 0.37 0.34 0.035 0.679-0.047 1.019-0.247 0.129 0.118 0.252 0.153 0.369 0.106 0.117-0.059 0.229-0.123 0.334-0.194 0.1-0.064 0.221-0.103 0.351-0.105h0.001c0.117-0.012 0.234 0.082 0.351 0.281 0.136-0.135 0.309-0.234 0.503-0.28l0.007-0.001c0.176-0.047 0.357-0.070 0.545-0.070 0.187-0.012 0.369-0.030 0.545-0.053 0.187-0.024 0.369-0.1 0.545-0.229zM36.101 11.78c0-0.176 0.029-0.364 0.087-0.563 0.060-0.2 0.106-0.393 0.141-0.58 0.035-0.2 0.030-0.387-0.017-0.563-0.036-0.176-0.147-0.334-0.334-0.474-0.131 0.072-0.238 0.173-0.315 0.294l-0.002 0.004c-0.082 0.118-0.164 0.24-0.246 0.37-0.083 0.117-0.182 0.216-0.295 0.295l-0.004 0.003c-0.105 0.082-0.246 0.106-0.422 0.070-0.058 0.141-0.058 0.259 0 0.352 0.059 0.082 0.13 0.164 0.211 0.246 0.082 0.070 0.158 0.147 0.229 0.229 0.082 0.082 0.111 0.187 0.088 0.316 0.047 0.036 0.111 0.070 0.193 0.106 0.082 0.023 0.164 0.040 0.246 0.053 0.001 0 0.003 0 0.005 0 0.092 0 0.182-0.013 0.266-0.038l-0.007 0.002c0.074-0.017 0.136-0.062 0.175-0.122l0.001-0.001zM35.978 13.185c-0.235 0-0.44-0.052-0.616-0.158-0.204-0.146-0.37-0.273-0.532-0.404l0.023 0.018c-0.163-0.141-0.34-0.27-0.527-0.387-0.182-0.129-0.405-0.213-0.646-0.229l-0.004-0c-0.114 0.15-0.235 0.282-0.368 0.403l-0.002 0.002c-0.14 0.117-0.263 0.246-0.368 0.386-0.106 0.141-0.182 0.293-0.229 0.457-0.035 0.165-0.006 0.352 0.088 0.563-0.27 0.129-0.451 0.316-0.545 0.562-0.091 0.225-0.159 0.487-0.192 0.759l-0.001 0.015-0.070 0.844c-0.024 0.28-0.1 0.533-0.23 0.756l0.387-0.264c0.046 0.023 0.083 0.059 0.105 0.104l0.001 0.001c0.035 0.047 0.041 0.1 0.018 0.159 0.088-0.089 0.193-0.16 0.31-0.209l0.006-0.002c0.101-0.053 0.219-0.095 0.343-0.121l0.009-0.002c0.128-0.036 0.252-0.065 0.369-0.088 0.129-0.024 0.252-0.059 0.369-0.106 0.293 0.164 0.504 0.2 0.633 0.106s0.234-0.235 0.316-0.422c0.082-0.188 0.17-0.381 0.264-0.58 0.079-0.196 0.247-0.341 0.453-0.386l0.004-0.001-0.123-0.123c0.199-0.246 0.375-0.498 0.527-0.756 0.164-0.27 0.24-0.568 0.228-0.897z"
      />
</symbol>

<symbol id="icon-entypo-social_facebook-with-circle" viewBox="0 0 32 32">
<path
        d="M16 0.64c-8.483 0-15.36 6.877-15.36 15.36s6.877 15.36 15.36 15.36 15.36-6.877 15.36-15.36-6.877-15.36-15.36-15.36zM19.638 11.254h-2.309c-0.274 0-0.578 0.36-0.578 0.838v1.667h2.888l-0.437 2.378h-2.451v7.138h-2.725v-7.138h-2.472v-2.378h2.472v-1.398c0-2.006 1.392-3.637 3.302-3.637h2.309v2.53z"
      />
</symbol>

<symbol id="icon-entypo-social_twitter-with-circle" viewBox="0 0 32 32">
<path
        d="M16 0.64c-8.483 0-15.36 6.877-15.36 15.36s6.877 15.36 15.36 15.36 15.36-6.877 15.36-15.36-6.877-15.36-15.36-15.36zM22.248 13.222c0.006 0.131 0.008 0.262 0.008 0.39 0 4-3.042 8.61-8.606 8.61-0.004 0-0.009 0-0.014 0-1.717 0-3.317-0.507-4.655-1.38l0.033 0.020c0.235 0.029 0.477 0.040 0.722 0.040 0.004 0 0.009 0 0.014 0 1.419 0 2.723-0.488 3.756-1.304l-0.013 0.010c-1.317-0.027-2.426-0.889-2.819-2.078l-0.006-0.021c0.171 0.034 0.367 0.053 0.568 0.053 0.284 0 0.558-0.039 0.818-0.111l-0.021 0.005c-1.394-0.289-2.427-1.507-2.427-2.966v-0.037c0.408 0.226 0.875 0.363 1.371 0.379-0.818-0.55-1.348-1.472-1.348-2.517 0-0.562 0.153-1.088 0.42-1.538l-0.008 0.014c1.499 1.833 3.715 3.031 6.214 3.162l0.021 0.001c-0.051-0.208-0.081-0.448-0.081-0.694 0-1.671 1.355-3.026 3.026-3.026 0.871 0 1.657 0.368 2.209 0.958l0.002 0.002c0.724-0.146 1.367-0.401 1.947-0.75l-0.027 0.015c-0.234 0.713-0.704 1.295-1.316 1.668l-0.013 0.008c0.645-0.079 1.232-0.248 1.776-0.494l-0.038 0.015c-0.414 0.614-0.914 1.133-1.491 1.554l-0.017 0.012z"
      />
</symbol>

<symbol id="icon-entypo-social_instagram-with-circle" viewBox="0 0 32 32">
<path
        d="M20.8 16c0 2.651-2.149 4.8-4.8 4.8s-4.8-2.149-4.8-4.8v0c0-0.274 0.029-0.541 0.078-0.8h-1.678v6.395c0 0.445 0.36 0.805 0.805 0.805h11.192c0.444-0.001 0.803-0.361 0.803-0.805 0 0 0 0 0 0v0-6.395h-1.678c0.050 0.259 0.078 0.526 0.078 0.8zM16 19.2c1.767-0 3.2-1.433 3.2-3.2s-1.433-3.2-3.2-3.2c-0 0-0 0-0 0h0c-1.767 0-3.2 1.433-3.2 3.2s1.433 3.2 3.2 3.2c0 0 0 0 0 0h-0zM19.84 12.64h1.918c0 0 0 0 0 0 0.265 0 0.481-0.215 0.482-0.48v-1.918c0-0.266-0.216-0.482-0.482-0.482h-1.918c-0.266 0-0.482 0.216-0.482 0.482v0 1.918c0.002 0.264 0.218 0.48 0.482 0.48zM16 0.64c-8.483 0-15.36 6.877-15.36 15.36s6.877 15.36 15.36 15.36v0c8.483 0 15.36-6.877 15.36-15.36s-6.877-15.36-15.36-15.36v0zM24 22.222c0 0.978-0.8 1.778-1.778 1.778h-12.445c-0.978 0-1.778-0.8-1.778-1.778v-12.445c0-0.978 0.8-1.778 1.778-1.778h12.445c0.978 0 1.778 0.8 1.778 1.778v12.445z"
      />
</symbol>

<symbol id="icon-entypo-social_youtube-with-circle" viewBox="0 0 32 32">
<path
        d="M18.565 15.733l-3.594-1.677c-0.314-0.146-0.571 0.018-0.571 0.365v3.158c0 0.347 0.258 0.51 0.571 0.365l3.592-1.677c0.315-0.147 0.315-0.387 0.002-0.534zM16 0.64c-8.483 0-15.36 6.877-15.36 15.36s6.877 15.36 15.36 15.36 15.36-6.877 15.36-15.36-6.877-15.36-15.36-15.36zM16 22.24c-7.862 0-8-0.709-8-6.24s0.138-6.24 8-6.24 8 0.709 8 6.24-0.138 6.24-8 6.24z"
      />
</symbol>

<symbol id="icon-entypo-social_pinterest-with-circle" viewBox="0 0 32 32">
<path
        d="M16 0.64c-8.483 0-15.36 6.877-15.36 15.36s6.877 15.36 15.36 15.36 15.36-6.877 15.36-15.36-6.877-15.36-15.36-15.36zM17.051 19.64c-0.986-0.075-1.398-0.563-2.17-1.030-0.424 2.226-0.942 4.36-2.478 5.475-0.475-3.366 0.694-5.891 1.238-8.574-0.926-1.56 0.11-4.698 2.066-3.926 2.405 0.954-2.083 5.8 0.93 6.406 3.146 0.63 4.43-5.459 2.48-7.437-2.819-2.859-8.203-0.066-7.541 4.027 0.16 1 1.195 1.304 0.413 2.685-1.803-0.4-2.342-1.822-2.272-3.718 0.11-3.104 2.789-5.278 5.474-5.578 3.397-0.378 6.584 1.246 7.026 4.443 0.494 3.606-1.534 7.509-5.165 7.227z"
      />
</symbol>
</defs>
</svg>
